#Comment line ignore any data following # character 
#Hierarchical Translation and Rotation (.htr) file 
[Header]	
#Header keywords are followed by a single value 
FileType HTR		#Single word string
DataType HTRS		#Translation followed by rotation and scale data
FileVersion 1		#integer
NumSegments 84		#integer
NumFrames 2		#integer
DataFrameRate 30		#integer, data frame rate in this file
EulerRotationOrder ZYX
CalibrationUnits mm
RotationUnits Degrees
GlobalAxisofGravity Y
BoneLengthAxis Y
ScaleFactor 1.00
[SegmentNames&Hierarchy]
#CHILD	PARENT
MASTER GLOBAL
root MASTER
chest root
L_mid_tent01 root
R_mid_tent01 root
spine01 root
Bip01_Neck chest
L_humerus chest
R_humerus chest
weapon_bone chest
Bip01_Head Bip01_Neck
eye_left_bone Bip01_Head
eye_right_bone Bip01_Head
L_forearm L_humerus
L_front_hand L_forearm
L_weapon_bone L_forearm
L_front_hand01_01 L_front_hand
L_front_hand02_01 L_front_hand
L_front_hand03_01 L_front_hand
L_front_hand01_02 L_front_hand01_01
L_front_hand02_02 L_front_hand02_01
L_front_hand03_02 L_front_hand03_01
R_forearm R_humerus
R_front_hand R_forearm
R_weapon_bone R_forearm
R_front_hand01_01 R_front_hand
R_front_hand02_01 R_front_hand
R_front_hand03_01 R_front_hand
R_front_hand01_02 R_front_hand01_01
R_front_hand02_02 R_front_hand02_01
R_front_hand03_02 R_front_hand03_01
null_rope01_connect L_mid_tent01
Rope1_Seg01 null_rope01_connect
Rope1_Seg02 Rope1_Seg01
Rope1_Seg03 Rope1_Seg02
Rope1_Seg04 Rope1_Seg03
Rope1_Seg05 Rope1_Seg04
Rope1_Seg06 Rope1_Seg05
Rope1_Seg07 Rope1_Seg06
Rope1_Seg09 Rope1_Seg07
L_mid_hand01 Rope1_Seg09
L_mid_hand02 Rope1_Seg09
L_mid_hand03 Rope1_Seg09
null_rope02_connect R_mid_tent01
Rope2_Seg01 null_rope02_connect
Rope2_Seg02 Rope2_Seg01
Rope2_Seg03 Rope2_Seg02
Rope2_Seg04 Rope2_Seg03
Rope2_Seg05 Rope2_Seg04
Rope2_Seg06 Rope2_Seg05
Rope2_Seg07 Rope2_Seg06
Rope2_Seg09 Rope2_Seg07
R_mid_hand01 Rope2_Seg09
R_mid_hand02 Rope2_Seg09
R_mid_hand03 Rope2_Seg09
spine02 spine01
spine03 spine02
pelvis spine03
null_rope03_connect pelvis
null_rope04_connect pelvis
Rope3_Seg01 null_rope03_connect
Rope3_Seg02 Rope3_Seg01
Rope3_Seg03 Rope3_Seg02
Rope3_Seg04 Rope3_Seg03
Rope3_Seg05 Rope3_Seg04
Rope3_Seg06 Rope3_Seg05
Rope3_Seg07 Rope3_Seg06
Rope3_Seg08 Rope3_Seg07
Rope3_Seg09 Rope3_Seg08
R_rear_hand01 Rope3_Seg09
R_rear_hand02 Rope3_Seg09
R_rear_hand03 Rope3_Seg09
Rope4_Seg01 null_rope04_connect
Rope4_Seg02 Rope4_Seg01
Rope4_Seg03 Rope4_Seg02
Rope4_Seg04 Rope4_Seg03
Rope4_Seg05 Rope4_Seg04
Rope4_Seg06 Rope4_Seg05
Rope4_Seg07 Rope4_Seg06
Rope4_Seg08 Rope4_Seg07
Rope4_Seg09 Rope4_Seg08
L_rear_hand01 Rope4_Seg09
L_rear_hand02 Rope4_Seg09
L_rear_hand03 Rope4_Seg09
[BasePosition]
#SegmentName Tx, Ty, Tz, Rx, Ry, Rz, BoneLength
MASTER 0.000000 0.000000 0.000000 -90.000000 0.000000 0.000000 10.000000 
root 0.000000 0.000000 0.000000 0.000000 0.000000 0.000000 10.000000 
chest 0.000000 0.000000 0.000000 0.000000 0.000000 0.000000 10.000000 
L_mid_tent01 0.000000 0.000000 0.000000 0.000000 0.000000 0.000000 10.000000 
R_mid_tent01 0.000000 0.000000 0.000000 0.000000 0.000000 0.000000 10.000000 
spine01 0.000000 0.000000 0.000000 0.000000 0.000000 0.000000 10.000000 
Bip01_Neck 0.000000 0.000000 0.000000 0.000000 0.000000 0.000000 10.000000 
L_humerus 0.000000 0.000000 0.000000 0.000000 0.000000 0.000000 10.000000 
R_humerus 0.000000 0.000000 0.000000 0.000000 0.000000 0.000000 10.000000 
weapon_bone 0.000000 0.000000 0.000000 0.000000 0.000000 0.000000 10.000000 
Bip01_Head 0.000000 0.000000 0.000000 0.000000 0.000000 0.000000 10.000000 
eye_left_bone 0.000000 0.000000 0.000000 0.000000 0.000000 0.000000 10.000000 
eye_right_bone 0.000000 0.000000 0.000000 0.000000 0.000000 0.000000 10.000000 
L_forearm 0.000000 0.000000 0.000000 0.000000 0.000000 0.000000 10.000000 
L_front_hand 0.000000 0.000000 0.000000 0.000000 0.000000 0.000000 10.000000 
L_weapon_bone 0.000000 0.000000 0.000000 0.000000 0.000000 0.000000 10.000000 
L_front_hand01_01 0.000000 0.000000 0.000000 0.000000 0.000000 0.000000 10.000000 
L_front_hand02_01 0.000000 0.000000 0.000000 0.000000 0.000000 0.000000 10.000000 
L_front_hand03_01 0.000000 0.000000 0.000000 0.000000 0.000000 0.000000 10.000000 
L_front_hand01_02 0.000000 0.000000 0.000000 0.000000 0.000000 0.000000 10.000000 
L_front_hand02_02 0.000000 0.000000 0.000000 0.000000 0.000000 0.000000 10.000000 
L_front_hand03_02 0.000000 0.000000 0.000000 0.000000 0.000000 0.000000 10.000000 
R_forearm 0.000000 0.000000 0.000000 0.000000 0.000000 0.000000 10.000000 
R_front_hand 0.000000 0.000000 0.000000 0.000000 0.000000 0.000000 10.000000 
R_weapon_bone 0.000000 0.000000 0.000000 0.000000 0.000000 0.000000 10.000000 
R_front_hand01_01 0.000000 0.000000 0.000000 0.000000 0.000000 0.000000 10.000000 
R_front_hand02_01 0.000000 0.000000 0.000000 0.000000 0.000000 0.000000 10.000000 
R_front_hand03_01 0.000000 0.000000 0.000000 0.000000 0.000000 0.000000 10.000000 
R_front_hand01_02 0.000000 0.000000 0.000000 0.000000 0.000000 0.000000 10.000000 
R_front_hand02_02 0.000000 0.000000 0.000000 0.000000 0.000000 0.000000 10.000000 
R_front_hand03_02 0.000000 0.000000 0.000000 0.000000 0.000000 0.000000 10.000000 
null_rope01_connect 0.000000 0.000000 0.000000 0.000000 0.000000 0.000000 10.000000 
Rope1_Seg01 0.000000 0.000000 0.000000 0.000000 0.000000 0.000000 10.000000 
Rope1_Seg02 0.000000 0.000000 0.000000 0.000000 0.000000 0.000000 10.000000 
Rope1_Seg03 0.000000 0.000000 0.000000 0.000000 0.000000 0.000000 10.000000 
Rope1_Seg04 0.000000 0.000000 0.000000 0.000000 0.000000 0.000000 10.000000 
Rope1_Seg05 0.000000 0.000000 0.000000 0.000000 0.000000 0.000000 10.000000 
Rope1_Seg06 0.000000 0.000000 0.000000 0.000000 0.000000 0.000000 10.000000 
Rope1_Seg07 0.000000 0.000000 0.000000 0.000000 0.000000 0.000000 10.000000 
Rope1_Seg09 0.000000 0.000000 0.000000 0.000000 0.000000 0.000000 10.000000 
L_mid_hand01 0.000000 0.000000 0.000000 0.000000 0.000000 0.000000 10.000000 
L_mid_hand02 0.000000 0.000000 0.000000 0.000000 0.000000 0.000000 10.000000 
L_mid_hand03 0.000000 0.000000 0.000000 0.000000 0.000000 0.000000 10.000000 
null_rope02_connect 0.000000 0.000000 0.000000 0.000000 0.000000 0.000000 10.000000 
Rope2_Seg01 0.000000 0.000000 0.000000 0.000000 0.000000 0.000000 10.000000 
Rope2_Seg02 0.000000 0.000000 0.000000 0.000000 0.000000 0.000000 10.000000 
Rope2_Seg03 0.000000 0.000000 0.000000 0.000000 0.000000 0.000000 10.000000 
Rope2_Seg04 0.000000 0.000000 0.000000 0.000000 0.000000 0.000000 10.000000 
Rope2_Seg05 0.000000 0.000000 0.000000 0.000000 0.000000 0.000000 10.000000 
Rope2_Seg06 0.000000 0.000000 0.000000 0.000000 0.000000 0.000000 10.000000 
Rope2_Seg07 0.000000 0.000000 0.000000 0.000000 0.000000 0.000000 10.000000 
Rope2_Seg09 0.000000 0.000000 0.000000 0.000000 0.000000 0.000000 10.000000 
R_mid_hand01 0.000000 0.000000 0.000000 0.000000 0.000000 0.000000 10.000000 
R_mid_hand02 0.000000 0.000000 0.000000 0.000000 0.000000 0.000000 10.000000 
R_mid_hand03 0.000000 0.000000 0.000000 0.000000 0.000000 0.000000 10.000000 
spine02 0.000000 0.000000 0.000000 0.000000 0.000000 0.000000 10.000000 
spine03 0.000000 0.000000 0.000000 0.000000 0.000000 0.000000 10.000000 
pelvis 0.000000 0.000000 0.000000 0.000000 0.000000 0.000000 10.000000 
null_rope03_connect 0.000000 0.000000 0.000000 0.000000 0.000000 0.000000 10.000000 
null_rope04_connect 0.000000 0.000000 0.000000 0.000000 0.000000 0.000000 10.000000 
Rope3_Seg01 0.000000 0.000000 0.000000 0.000000 0.000000 0.000000 10.000000 
Rope3_Seg02 0.000000 0.000000 0.000000 0.000000 0.000000 0.000000 10.000000 
Rope3_Seg03 0.000000 0.000000 0.000000 0.000000 0.000000 0.000000 10.000000 
Rope3_Seg04 0.000000 0.000000 0.000000 0.000000 0.000000 0.000000 10.000000 
Rope3_Seg05 0.000000 0.000000 0.000000 0.000000 0.000000 0.000000 10.000000 
Rope3_Seg06 0.000000 0.000000 0.000000 0.000000 0.000000 0.000000 10.000000 
Rope3_Seg07 0.000000 0.000000 0.000000 0.000000 0.000000 0.000000 10.000000 
Rope3_Seg08 0.000000 0.000000 0.000000 0.000000 0.000000 0.000000 10.000000 
Rope3_Seg09 0.000000 0.000000 0.000000 0.000000 0.000000 0.000000 10.000000 
R_rear_hand01 0.000000 0.000000 0.000000 0.000000 0.000000 0.000000 10.000000 
R_rear_hand02 0.000000 0.000000 0.000000 0.000000 0.000000 0.000000 10.000000 
R_rear_hand03 0.000000 0.000000 0.000000 0.000000 0.000000 0.000000 10.000000 
Rope4_Seg01 0.000000 0.000000 0.000000 0.000000 0.000000 0.000000 10.000000 
Rope4_Seg02 0.000000 0.000000 0.000000 0.000000 0.000000 0.000000 10.000000 
Rope4_Seg03 0.000000 0.000000 0.000000 0.000000 0.000000 0.000000 10.000000 
Rope4_Seg04 0.000000 0.000000 0.000000 0.000000 0.000000 0.000000 10.000000 
Rope4_Seg05 0.000000 0.000000 0.000000 0.000000 0.000000 0.000000 10.000000 
Rope4_Seg06 0.000000 0.000000 0.000000 0.000000 0.000000 0.000000 10.000000 
Rope4_Seg07 0.000000 0.000000 0.000000 0.000000 0.000000 0.000000 10.000000 
Rope4_Seg08 0.000000 0.000000 0.000000 0.000000 0.000000 0.000000 10.000000 
Rope4_Seg09 0.000000 0.000000 0.000000 0.000000 0.000000 0.000000 10.000000 
L_rear_hand01 0.000000 0.000000 0.000000 0.000000 0.000000 0.000000 10.000000 
L_rear_hand02 0.000000 0.000000 0.000000 0.000000 0.000000 0.000000 10.000000 
L_rear_hand03 0.000000 0.000000 0.000000 0.000000 0.000000 0.000000 10.000000 
#Beginning of Data. Separated by tabs
#Fr	Tx	Ty	Tz	Rx	Ry	Rz	SF
[MASTER]
7 0.000000 0.000000 0.000000 0.001660 0.001660 0.001660 0.000000
8 0.000000 0.000000 0.000000 0.001660 0.001660 0.001660 0.000000
[root]
7 -7.320988 -40.453354 1144.236694 -112.167564 -17.355474 -75.529564 1144.974976
8 -9.210368 -33.316475 1033.458618 -111.773117 -16.886299 -75.785912 1034.036499
[chest]
7 -84.512650 -34.090519 0.000000 4.739512 -0.569166 -174.672333 91.129311
8 -84.512650 -34.090519 0.000000 4.564905 -0.487035 -174.663589 91.129311
[L_mid_tent01]
7 27.299517 22.177517 -249.918274 2.127024 24.071096 68.464050 252.381165
8 27.299520 22.177509 -249.918274 2.824828 24.520576 68.675056 252.381165
[R_mid_tent01]
7 23.228794 24.509907 226.238495 172.965881 -23.503592 57.670807 228.744751
8 23.228794 24.509907 226.238495 175.225296 -24.023344 57.157833 228.744751
[spine01]
7 -0.361383 -0.195265 0.000000 0.001845 0.001451 13.654368 0.410763
8 -0.361383 -0.195265 0.000000 0.001845 0.001451 13.654368 0.410763
[Bip01_Neck]
7 165.484543 71.581718 0.000119 176.643677 -1.657967 43.431911 180.302734
8 165.484543 71.581718 0.000119 176.643677 -1.657967 43.431911 180.302734
[L_humerus]
7 -13.983130 -135.272980 -120.471481 138.413300 81.800941 -126.110428 181.680161
8 -13.983130 -135.272980 -120.471481 137.678360 80.382423 -128.728043 181.680161
[R_humerus]
7 -13.983309 -135.273102 125.287651 -173.797424 -69.692230 -89.514900 184.909012
8 -13.983309 -135.273102 125.287651 -175.777634 -73.673363 -85.962837 184.909012
[weapon_bone]
7 235.964890 -300.705902 0.000000 0.000000 -89.951546 -128.212341 382.234833
8 235.964890 -300.705902 0.000000 0.000000 -89.951546 -128.212341 382.234833
[Bip01_Head]
7 213.613510 185.559296 13.793334 4.440665 -1.009280 -43.899731 283.290039
8 213.574112 185.696487 12.022838 4.440942 -0.784973 -43.901012 283.269531
[eye_left_bone]
7 -24.626970 125.451866 -64.772606 0.000000 -90.000000 -99.840431 143.318359
8 -24.626970 125.451866 -64.772606 0.000000 -90.000000 -99.840431 143.318359
[eye_right_bone]
7 -24.626970 125.451866 64.327362 0.000000 -89.965736 80.156380 143.117676
8 -24.626970 125.451866 64.327362 0.000000 -89.965736 80.156380 143.117676
[L_forearm]
7 322.776093 0.000000 -0.000119 0.000182 -0.002340 -98.870155 322.776093
8 322.776093 0.000000 -0.000119 0.000223 -0.002337 -100.924789 322.776093
[L_front_hand]
7 241.149185 -0.042021 -3.300071 -178.667953 -1.835447 -27.422342 241.171753
8 241.149185 -0.042021 -3.300071 -178.667953 -1.835447 -27.422350 241.171753
[L_weapon_bone]
7 156.183838 0.000000 0.000000 0.000014 0.000007 0.000001 156.183838
8 156.183838 0.000000 0.000000 0.000014 0.000007 0.000001 156.183838
[L_front_hand01_01]
7 86.095154 20.947098 -0.655860 -0.291918 -0.522545 67.227623 88.609184
8 86.095154 20.947098 -0.655860 -0.306535 -0.513312 68.646957 88.609184
[L_front_hand02_01]
7 86.935165 -11.437475 24.513514 143.299133 -55.645813 -48.269917 91.046425
8 86.935165 -11.437475 24.513514 145.004028 -56.473930 -50.323566 91.046425
[L_front_hand03_01]
7 86.637497 -14.123976 -20.424902 -143.556335 53.862476 -50.232788 90.126129
8 86.637497 -14.123976 -20.424902 -145.151382 54.687630 -52.198425 90.126129
[L_front_hand01_02]
7 71.020905 -0.000179 0.000030 0.000317 -0.002326 -105.524834 71.020905
8 71.020905 -0.000179 0.000030 0.000320 -0.002325 -105.655235 71.020905
[L_front_hand02_02]
7 71.020927 -0.000119 0.000060 0.000317 -0.002326 -105.524834 71.020927
8 71.020927 -0.000119 0.000060 0.000320 -0.002325 -105.655235 71.020927
[L_front_hand03_02]
7 71.020905 -0.000060 0.000060 0.000317 -0.002326 -105.524834 71.020905
8 71.020905 -0.000060 0.000060 0.000320 -0.002325 -105.655235 71.020905
[R_forearm]
7 322.776428 -0.000060 0.000030 0.212776 0.017350 -94.951218 322.776428
8 322.776428 -0.000060 0.000030 0.212438 0.021092 -96.968361 322.776428
[R_front_hand]
7 238.847015 -0.006795 2.210259 -2.635298 -10.645461 -26.312506 238.857239
8 238.847015 -0.006795 2.210259 -2.635298 -10.645461 -26.312506 238.857239
[R_weapon_bone]
7 155.664093 0.002503 -0.000030 0.003487 0.001180 -90.988930 155.664078
8 155.664093 0.002503 -0.000030 0.003487 0.001180 -90.988930 155.664078
[R_front_hand01_01]
7 87.624611 14.231146 22.918642 -141.083969 -54.436913 45.672482 91.683487
8 87.624611 14.231146 22.918642 -143.936401 -55.959175 49.146481 91.683487
[R_front_hand02_01]
7 89.356956 14.367283 -19.491137 141.813004 52.852688 48.289932 92.579636
8 89.356956 14.367283 -19.491137 144.531738 54.354259 51.666676 92.579636
[R_front_hand03_01]
7 87.286232 -22.307278 -0.143439 0.082367 -0.444902 -65.508453 90.091743
8 87.286232 -22.307278 -0.143439 0.103015 -0.441569 -68.007935 90.091743
[R_front_hand01_02]
7 71.020905 0.000060 0.000119 0.002323 -0.000334 106.381714 71.020905
8 71.020905 0.000060 0.000119 0.002323 -0.000334 106.381714 71.020905
[R_front_hand02_02]
7 71.020844 -0.000030 -0.000119 0.002323 -0.000334 106.381714 71.020836
8 71.020844 -0.000030 -0.000119 0.002323 -0.000334 106.381714 71.020836
[R_front_hand03_02]
7 71.020905 0.000000 0.000030 0.002323 -0.000334 106.381714 71.020905
8 71.020905 0.000000 0.000030 0.002323 -0.000334 106.381714 71.020905
[null_rope01_connect]
7 328.732483 0.000000 -0.000238 -162.279129 -51.203480 -151.184967 328.732483
8 328.732483 0.000000 -0.000238 -161.355545 -51.290535 -152.641678 328.732483
[Rope1_Seg01]
7 0.000000 0.000000 0.000000 58.261837 -48.785072 -130.636597 0.000000
8 0.000000 0.000000 0.000000 69.801064 -39.037727 -141.818756 0.000000
[Rope1_Seg02]
7 139.999863 -0.000179 0.000000 2.370367 -3.063518 -6.830281 139.999863
8 139.999863 -0.000179 0.000000 8.295251 -8.963582 -13.183740 139.999863
[Rope1_Seg03]
7 139.999924 0.000060 -0.000060 11.509706 -10.222554 -21.455036 139.999924
8 139.999924 0.000060 -0.000060 42.313297 -33.399223 -49.731293 139.999924
[Rope1_Seg04]
7 139.999924 -0.000060 -0.000119 55.481308 -30.191759 -64.933479 139.999924
8 139.999924 -0.000060 -0.000119 13.442241 -36.522423 -17.454187 139.999924
[Rope1_Seg05]
7 139.999832 0.000119 -0.000060 6.098287 -22.409950 -3.696627 139.999832
8 139.999832 0.000119 -0.000060 -0.139289 -9.533897 0.976087 139.999832
[Rope1_Seg06]
7 139.999954 0.000119 -0.000060 -0.433583 -10.933500 6.724371 139.999954
8 139.999954 0.000119 -0.000060 -0.660584 -7.441682 0.961532 139.999954
[Rope1_Seg07]
7 139.999985 0.000060 0.000000 -0.841107 -9.251199 2.441714 139.999985
8 139.999985 0.000060 0.000000 -0.819331 -5.386448 -0.019211 139.999985
[Rope1_Seg09]
7 121.602913 0.000119 -0.000089 -89.793175 -1.359789 0.847147 121.602913
8 121.602913 0.000119 -0.000089 -89.793175 -1.359789 0.847147 121.602913
[L_mid_hand01]
7 103.859421 1.038730 8.195221 109.056190 -40.604694 -13.201397 104.187431
8 103.859421 1.038730 8.195221 109.056198 -40.604698 -13.201401 104.187431
[L_mid_hand02]
7 105.572853 -4.139662 -10.864139 -146.713593 31.476524 -37.902313 106.211075
8 105.572853 -4.139662 -10.864139 -146.713593 31.476524 -37.902309 106.211075
[L_mid_hand03]
7 104.641464 17.579376 -3.913581 -14.267235 12.322316 43.898396 106.179977
8 104.641464 17.579376 -3.913581 -14.267231 12.322313 43.898392 106.179977
[null_rope02_connect]
7 328.732849 0.000179 -0.000119 -69.788612 57.809956 61.265099 328.732849
8 328.732849 0.000179 -0.000119 -73.432076 59.550220 57.994289 328.732849
[Rope2_Seg01]
7 0.000076 0.000110 0.000153 -60.509918 28.462461 20.211025 0.000203
8 0.000076 0.000110 0.000153 -50.037632 12.398768 29.958771 0.000203
[Rope2_Seg02]
7 139.999741 -0.000060 -0.000119 -11.513946 -25.835384 32.829742 139.999756
8 139.999741 -0.000060 -0.000119 -5.937006 -10.547747 27.811829 139.999756
[Rope2_Seg03]
7 140.000107 0.000030 0.000000 0.098193 -7.583468 6.476806 140.000107
8 140.000107 0.000030 0.000000 0.124005 -6.949836 9.344308 140.000107
[Rope2_Seg04]
7 139.999802 0.000000 -0.000060 0.883080 2.829157 2.230117 139.999802
8 139.999802 0.000000 -0.000060 1.385973 2.322017 5.498333 139.999802
[Rope2_Seg05]
7 139.999985 -0.000060 0.000119 0.855563 7.921972 1.305304 139.999985
8 139.999985 -0.000060 0.000119 1.817363 8.087492 5.874678 139.999985
[Rope2_Seg06]
7 139.999893 -0.000030 -0.000119 0.300437 4.782096 1.464599 139.999893
8 139.999893 -0.000030 -0.000119 0.819640 5.582624 4.880864 139.999893
[Rope2_Seg07]
7 139.999893 0.000060 -0.000060 0.067378 3.339937 1.235648 139.999893
8 139.999893 0.000060 -0.000060 0.313110 3.832165 3.684529 139.999893
[Rope2_Seg09]
7 121.338966 0.000089 -0.000060 33.793236 -1.359788 -0.847141 121.338966
8 121.338966 0.000089 -0.000060 33.793236 -1.359788 -0.847141 121.338966
[R_mid_hand01]
7 104.680779 11.144459 -10.335981 -36.495327 32.739510 38.894321 105.778534
8 104.680779 11.144459 -10.335981 -37.023243 32.123158 37.917084 105.778534
[R_mid_hand02]
7 104.070427 2.443552 8.231699 69.926315 -43.736984 14.713636 104.424065
8 104.070427 2.443552 8.231699 70.253288 -42.771328 14.235763 104.424065
[R_mid_hand03]
7 106.028137 -11.221827 -5.996406 -170.196442 12.469419 -48.616360 106.788818
8 106.028137 -11.221827 -5.996406 -169.973053 12.289117 -47.575344 106.788818
[spine02]
7 129.756927 0.001550 0.000119 -1.023899 -3.926965 6.770993 129.756927
8 129.756927 0.001550 0.000119 -1.023899 -3.926965 6.770993 129.756927
[spine03]
7 78.613846 0.087372 -4.898873 1.040681 4.146420 4.212376 78.766380
8 78.613846 0.087372 -4.898873 1.040681 4.146420 4.212376 78.766380
[pelvis]
7 169.435242 0.051022 0.000000 0.019518 -0.190233 -10.721436 169.435257
8 169.435242 0.051022 0.000000 0.019518 -0.190233 -10.721436 169.435257
[null_rope03_connect]
7 -1.257226 -2.466202 137.391083 161.693283 -67.394272 -65.432602 137.418976
8 -1.257226 -2.466202 137.391083 161.269455 -67.676018 -65.572586 137.418976
[null_rope04_connect]
7 -1.259640 -2.480268 -137.844437 161.693283 -67.394272 -65.432602 137.872513
8 -1.259640 -2.480268 -137.844437 161.269455 -67.676018 -65.572586 137.872513
[Rope3_Seg01]
7 0.000000 0.000000 0.000000 -150.636292 -24.472654 -29.534216 0.000000
8 0.000000 0.000000 0.000000 -144.792313 -18.070585 -22.117598 0.000000
[Rope3_Seg02]
7 139.999924 -0.000119 0.000060 32.722561 -26.175064 6.447539 139.999924
8 139.999924 -0.000119 0.000060 26.939470 -16.787691 8.105659 139.999924
[Rope3_Seg03]
7 139.999924 -0.000119 0.000119 21.094753 -17.848211 25.359831 139.999924
8 139.999924 -0.000119 0.000119 21.238043 -14.263907 22.058430 139.999924
[Rope3_Seg04]
7 139.999924 0.000119 0.000000 7.514060 -7.913051 21.121637 139.999924
8 139.999924 0.000119 0.000000 7.600081 -3.577004 20.657761 139.999924
[Rope3_Seg05]
7 139.999924 -0.000238 0.000060 1.743582 -13.501201 30.241171 139.999924
8 139.999924 -0.000238 0.000060 3.051253 -7.727631 30.756178 139.999924
[Rope3_Seg06]
7 139.999893 -0.000119 -0.000060 -1.495577 -5.954483 16.920080 139.999893
8 139.999893 -0.000119 -0.000060 -2.957129 -4.654841 24.118160 139.999893
[Rope3_Seg07]
7 139.999771 0.000060 -0.000119 -0.951504 -2.469530 7.413178 139.999771
8 139.999771 0.000060 -0.000119 -2.189682 -1.908615 9.642155 139.999771
[Rope3_Seg08]
7 139.999985 -0.000060 0.000000 -0.409497 -1.340528 3.840357 139.999985
8 139.999985 -0.000060 0.000000 -1.183434 -1.122492 4.748102 139.999985
[Rope3_Seg09]
7 90.185997 -0.000179 -0.000060 89.793228 -1.359877 -0.847183 90.185997
8 90.185997 -0.000179 -0.000060 89.793228 -1.359877 -0.847183 90.185997
[R_rear_hand01]
7 103.366196 -6.073594 -10.757982 -164.915863 19.747875 -40.821388 104.101845
8 103.366196 -6.073594 -10.757982 -164.755127 19.627697 -40.352161 104.101845
[R_rear_hand02]
7 100.509819 12.039542 -7.992327 -30.611040 25.017698 38.577400 101.543350
8 100.509819 12.039542 -7.992327 -30.792652 24.782448 38.141541 101.543350
[R_rear_hand03]
7 101.539970 5.215704 5.435467 82.396393 -41.501781 8.918384 101.819031
8 101.539970 5.215704 5.435467 82.448349 -41.048256 8.840378 101.819031
[Rope4_Seg01]
7 -0.000012 -0.000066 -0.000113 50.775932 -37.194771 -99.888908 0.000131
8 -0.000010 -0.000065 -0.000106 57.461903 -44.296455 -108.297264 0.000125
[Rope4_Seg02]
7 139.999985 0.000060 0.000119 2.728816 -21.664951 -5.291771 139.999985
8 139.999985 0.000060 0.000119 -0.590971 -13.415001 -10.921225 139.999985
[Rope4_Seg03]
7 139.999924 0.000000 -0.000238 7.517218 -21.827776 -2.479441 139.999924
8 139.999924 0.000000 -0.000238 -5.730192 -13.928337 -14.855064 139.999924
[Rope4_Seg04]
7 139.999985 0.000000 0.000119 11.122292 -15.661373 -1.021111 139.999985
8 139.999985 0.000000 0.000119 -21.938652 -17.139627 -17.933331 139.999985
[Rope4_Seg05]
7 139.999802 -0.000060 -0.000119 14.390951 -15.896393 -4.776069 139.999802
8 139.999802 -0.000060 -0.000119 -88.501297 -11.861828 -17.849348 139.999802
[Rope4_Seg06]
7 139.999924 0.000000 0.000060 119.173904 -12.566720 -1.321367 139.999924
8 139.999924 0.000000 0.000060 -23.812529 6.785661 -4.337059 139.999924
[Rope4_Seg07]
7 139.999802 0.000000 0.000000 23.033010 3.320801 6.234941 139.999802
8 139.999802 0.000000 0.000000 -6.044316 4.278182 -0.536541 139.999802
[Rope4_Seg08]
7 139.999924 0.000000 0.000119 2.570325 3.233716 2.628073 139.999924
8 139.999924 0.000000 0.000119 -3.982343 2.434908 -0.048354 139.999924
[Rope4_Seg09]
7 90.185791 0.000060 0.000060 -135.617828 2.228885 0.850567 90.185791
8 90.185791 0.000060 0.000060 -135.617828 2.228885 0.850567 90.185791
[L_rear_hand01]
7 101.696655 -8.392275 -7.654577 -31.684452 -23.583008 144.025742 102.329041
8 101.696655 -8.392275 -7.654577 -31.684452 -23.583008 144.025742 102.329041
[L_rear_hand02]
7 102.726799 -1.568258 5.773216 82.701553 38.753956 171.553619 102.900848
8 102.726799 -1.568258 5.773216 82.701553 38.753956 171.553619 102.900848
[L_rear_hand03]
7 104.552910 9.721220 -10.420293 -163.975388 -19.004416 -142.009338 105.519653
8 104.552910 9.721220 -10.420293 -163.975403 -19.004421 -142.009338 105.519653
